<?xml version="1.0" encoding="UTF-8" standalone="no"?>
<!-- This is a Stata 17.0 generated SVG file (http://www.stata.com) -->

<svg version="1.1" width="5.500in" height="4.000in" viewBox="0 0 3960 2880" xmlns="http://www.w3.org/2000/svg" xmlns:xlink="http://www.w3.org/1999/xlink">
	<desc>Stata Graph - Graph</desc>
	<rect x="0" y="0" width="3960" height="2880" style="fill:#EAF2F3;stroke:none"/>
	<rect x="0.00" y="0.00" width="3959.88" height="2880.00" style="fill:#EAF2F3"/>
	<rect x="2.88" y="2.88" width="3954.12" height="2874.24" style="fill:none;stroke:#EAF2F3;stroke-width:5.76"/>
	<rect x="390.80" y="100.86" width="3468.22" height="2388.33" style="fill:#FFFFFF"/>
	<rect x="393.68" y="103.74" width="3462.46" height="2382.57" style="fill:none;stroke:#FFFFFF;stroke-width:5.76"/>
	<line x1="390.80" y1="2425.82" x2="3859.02" y2="2425.82" style="stroke:#EAF2F3;stroke-width:8.64"/>
	<line x1="390.80" y1="1860.39" x2="3859.02" y2="1860.39" style="stroke:#EAF2F3;stroke-width:8.64"/>
	<line x1="390.80" y1="1294.96" x2="3859.02" y2="1294.96" style="stroke:#EAF2F3;stroke-width:8.64"/>
	<line x1="390.80" y1="729.53" x2="3859.02" y2="729.53" style="stroke:#EAF2F3;stroke-width:8.64"/>
	<path d=" M454.04 1814.11 L463.82 1759.28 L473.59 1705.20 L483.37 1650.88 L493.27 1596.92 L503.04 1543.46 L512.82 1490.74 L522.60 1438.39 L532.37 1387.03 L542.15 1337.28 L551.92 1289.02 L561.70 1241.99 L571.48 1196.20 L581.25 1151.41 L591.03 1107.72 L600.81 1065.27 L610.58 1023.94 L620.36 983.97 L630.14 945.73 L639.91 909.10 L649.69 874.07 L659.46 841.40 L669.36 810.59 L679.14 782.00 L688.92 755.76 L698.69 731.63 L708.47 710.10 L718.25 690.05 L728.02 671.86 L737.80 656.02 L747.57 643.27 L757.35 633.12 L767.13 625.33 L776.90 620.25 L786.68 617.66 L796.46 617.78 L806.23 620.38 L816.01 626.19 L825.78 634.86 L835.56 646.49 L845.46 660.97 L855.24 677.55 L865.01 695.50 L874.79 714.55 L884.57 734.73 L894.34 756.75 L904.12 779.65 L913.89 803.53 L923.67 828.04 L933.45 853.16 L943.22 879.15 L953.00 905.63 L962.78 932.61 L972.55 960.08 L982.33 987.68 L992.10 1016.14 L1001.88 1044.11 L1011.66 1071.71 L1021.56 1099.55 L1031.33 1126.78 L1041.11 1153.51 L1050.89 1178.88 L1060.66 1202.89 L1070.44 1226.15 L1080.21 1249.67 L1089.99 1273.06 L1099.77 1296.07 L1109.54 1318.23 L1119.32 1339.26 L1129.10 1359.56 L1138.87 1378.62 L1148.65 1396.56 L1158.42 1413.39 L1168.20 1429.85 L1177.98 1445.57 L1187.75 1460.67 L1197.65 1475.02 L1207.43 1489.25 L1217.21 1503.36 L1226.98 1517.10 L1236.76 1529.72 L1246.53 1541.97 L1256.31 1553.98 L1266.09 1565.49 L1275.86 1576.38 L1285.64 1586.90 L1295.42 1597.91 L1305.19 1609.17 L1314.97 1620.43 L1324.74 1631.69 L1334.52 1642.46 L1344.30 1653.23 L1354.07 1663.99 L1363.85 1674.14 L1373.75 1684.29 L1383.53 1694.44 L1393.30 1704.09 L1403.08 1713.74 L1412.85 1723.64 L1422.63 1733.67 L1432.41 1743.82 L1442.18 1754.21 L1451.96 1764.98 L1461.74 1775.87 L1471.51 1785.40 L1481.29 1794.31 L1491.06 1803.59 L1500.84 1813.74 L1510.62 1823.88 L1520.39 1834.40 L1530.17 1844.92 L1539.95 1855.57 L1549.72 1866.08 L1559.62 1876.11 L1569.40 1886.50 L1579.17 1897.15 L1588.95 1908.04 L1598.73 1919.05 L1608.50 1929.57 L1618.28 1939.10 L1628.06 1948.26 L1637.83 1957.41 L1647.61 1966.33 L1657.38 1974.86 L1667.16 1982.54 L1676.94 1990.09 L1686.71 1997.26 L1696.49 2004.19 L1706.27 2011.37 L1716.04 2018.55 L1725.82 2025.73 L1735.72 2033.28 L1745.49 2041.07 L1755.27 2048.50 L1765.05 2055.80 L1774.82 2062.85 L1784.60 2069.16 L1794.38 2075.85 L1804.15 2081.79 L1813.93 2087.36 L1823.70 2093.05 L1833.48 2098.87 L1843.26 2104.31 L1853.03 2109.88 L1862.81 2115.08 L1872.59 2120.28 L1882.36 2125.35 L1892.14 2130.30 L1901.91 2135.62 L1911.81 2141.19 L1921.59 2146.51 L1931.37 2151.46 L1941.14 2156.04 L1950.92 2160.74 L1960.70 2165.07 L1970.47 2169.16 L1980.25 2173.49 L1990.02 2177.70 L1999.80 2181.66 L2009.58 2185.62 L2019.35 2189.58 L2029.13 2193.41 L2038.91 2196.51 L2048.68 2199.35 L2058.46 2201.83 L2068.23 2204.80 L2078.01 2207.65 L2087.91 2210.24 L2097.69 2212.84 L2107.46 2215.19 L2117.24 2217.17 L2127.02 2219.28 L2136.79 2220.89 L2146.57 2222.25 L2156.34 2223.73 L2166.12 2224.97 L2175.90 2226.46 L2185.67 2228.19 L2195.45 2230.17 L2205.23 2232.15 L2215.00 2234.00 L2224.78 2234.75 L2234.55 2235.61 L2244.33 2236.97 L2254.11 2238.71 L2264.01 2240.81 L2273.78 2242.42 L2283.56 2244.52 L2293.34 2246.50 L2303.11 2248.24 L2312.89 2249.85 L2322.66 2251.21 L2332.44 2252.82 L2342.22 2253.68 L2351.99 2254.67 L2361.77 2255.54 L2371.55 2255.79 L2381.32 2255.79 L2391.10 2255.29 L2400.87 2254.30 L2410.65 2253.43 L2420.43 2252.32 L2430.20 2251.21 L2440.10 2249.72 L2449.88 2247.74 L2459.66 2245.39 L2469.43 2242.79 L2479.21 2240.32 L2488.98 2237.35 L2498.76 2233.01 L2508.54 2228.06 L2518.31 2222.12 L2528.09 2215.32 L2537.86 2208.14 L2547.64 2200.22 L2557.42 2191.68 L2567.19 2182.03 L2576.97 2171.63 L2586.75 2160.00 L2596.52 2147.50 L2606.30 2134.14 L2616.20 2120.03 L2625.98 2105.30 L2635.75 2089.71 L2645.53 2073.25 L2655.30 2055.68 L2665.08 2037.61 L2674.86 2018.05 L2684.63 1996.27 L2694.41 1972.88 L2704.19 1949.25 L2713.96 1924.37 L2723.74 1898.14 L2733.51 1870.91 L2743.29 1842.20 L2753.07 1812.00 L2762.84 1780.94 L2772.62 1748.77 L2782.40 1715.97 L2792.30 1680.83 L2802.07 1643.70 L2811.85 1604.47 L2821.62 1564.37 L2831.40 1523.29 L2841.18 1480.72 L2850.95 1436.53 L2860.73 1390.13 L2870.51 1342.36 L2880.28 1293.10 L2890.06 1243.60 L2899.83 1194.47 L2909.61 1145.09 L2919.39 1095.96 L2929.16 1046.96 L2938.94 998.57 L2948.72 951.17 L2958.49 904.39 L2968.39 858.85 L2978.17 814.92 L2987.94 773.46 L2997.72 735.35 L3007.50 700.94 L3017.27 669.88 L3027.05 641.91 L3036.83 617.53 L3046.60 596.74 L3056.38 579.04 L3066.15 564.94 L3075.93 554.05 L3085.71 546.25 L3095.48 541.30 L3105.26 539.57 L3115.04 541.05 L3124.81 545.26 L3134.59 551.94 L3144.49 561.22 L3154.26 573.48 L3164.04 588.94 L3173.82 607.51 L3183.59 629.29 L3193.37 653.92 L3203.15 681.14 L3212.92 710.84 L3222.70 743.14 L3232.47 778.41 L3242.25 815.54 L3252.03 854.52 L3261.80 895.61 L3271.58 938.67 L3281.36 983.84 L3291.13 1031.36 L3300.91 1080.74 L3310.68 1131.73 L3320.58 1184.32 L3330.36 1238.40 L3340.14 1293.85 L3349.91 1350.53 L3359.69 1408.81 L3369.47 1468.22 L3379.24 1528.98" stroke-linejoin="round" style="fill:none;stroke:#1A476F;stroke-width:8.64"/>
	<line x1="390.80" y1="2489.19" x2="390.80" y2="100.86" style="stroke:#000000;stroke-width:5.76"/>
	<line x1="390.80" y1="2425.82" x2="350.83" y2="2425.82" style="stroke:#000000;stroke-width:5.76"/>
	<text x="300.72" y="2425.82" style="font-family:'Helvetica';font-size:99.99px;fill:#000000" transform="rotate(-90 300.72,2425.82)" text-anchor="middle">.2</text>
	<line x1="390.80" y1="1860.39" x2="350.83" y2="1860.39" style="stroke:#000000;stroke-width:5.76"/>
	<text x="300.72" y="1860.39" style="font-family:'Helvetica';font-size:99.99px;fill:#000000" transform="rotate(-90 300.72,1860.39)" text-anchor="middle">.4</text>
	<line x1="390.80" y1="1294.96" x2="350.83" y2="1294.96" style="stroke:#000000;stroke-width:5.76"/>
	<text x="300.72" y="1294.96" style="font-family:'Helvetica';font-size:99.99px;fill:#000000" transform="rotate(-90 300.72,1294.96)" text-anchor="middle">.6</text>
	<line x1="390.80" y1="729.53" x2="350.83" y2="729.53" style="stroke:#000000;stroke-width:5.76"/>
	<text x="300.72" y="729.53" style="font-family:'Helvetica';font-size:99.99px;fill:#000000" transform="rotate(-90 300.72,729.53)" text-anchor="middle">.8</text>
	<line x1="390.80" y1="164.22" x2="350.83" y2="164.22" style="stroke:#000000;stroke-width:5.76"/>
	<text x="300.72" y="164.22" style="font-family:'Helvetica';font-size:99.99px;fill:#000000" transform="rotate(-90 300.72,164.22)" text-anchor="middle">1</text>
	<text x="190.71" y="1294.96" style="font-family:'Helvetica';font-size:99.99px;fill:#000000" transform="rotate(-90 190.71,1294.96)" text-anchor="middle">Density</text>
	<line x1="390.80" y1="2489.19" x2="3859.02" y2="2489.19" style="stroke:#000000;stroke-width:5.76"/>
	<line x1="597.47" y1="2489.19" x2="597.47" y2="2529.16" style="stroke:#000000;stroke-width:5.76"/>
	<text x="597.47" y="2619.14" style="font-family:'Helvetica';font-size:99.99px;fill:#000000" text-anchor="middle">2.5</text>
	<line x1="1397.01" y1="2489.19" x2="1397.01" y2="2529.16" style="stroke:#000000;stroke-width:5.76"/>
	<text x="1397.01" y="2619.14" style="font-family:'Helvetica';font-size:99.99px;fill:#000000" text-anchor="middle">3</text>
	<line x1="2196.56" y1="2489.19" x2="2196.56" y2="2529.16" style="stroke:#000000;stroke-width:5.76"/>
	<text x="2196.56" y="2619.14" style="font-family:'Helvetica';font-size:99.99px;fill:#000000" text-anchor="middle">3.5</text>
	<line x1="2996.11" y1="2489.19" x2="2996.11" y2="2529.16" style="stroke:#000000;stroke-width:5.76"/>
	<text x="2996.11" y="2619.14" style="font-family:'Helvetica';font-size:99.99px;fill:#000000" text-anchor="middle">4</text>
	<line x1="3795.66" y1="2489.19" x2="3795.66" y2="2529.16" style="stroke:#000000;stroke-width:5.76"/>
	<text x="3795.66" y="2619.14" style="font-family:'Helvetica';font-size:99.99px;fill:#000000" text-anchor="middle">4.5</text>
	<text x="2124.91" y="2729.16" style="font-family:'Helvetica';font-size:99.99px;fill:#000000" text-anchor="middle">Contemporaneous effect of temperature on crime</text>
</svg>
