<?xml version="1.0" encoding="UTF-8" standalone="no"?>
<!-- This is a Stata 17.0 generated SVG file (http://www.stata.com) -->

<svg version="1.1" width="5.500in" height="4.000in" viewBox="0 0 3960 2880" xmlns="http://www.w3.org/2000/svg" xmlns:xlink="http://www.w3.org/1999/xlink">
	<desc>Stata Graph - Graph</desc>
	<rect x="0" y="0" width="3960" height="2880" style="fill:#EAF2F3;stroke:none"/>
	<rect x="0.00" y="0.00" width="3959.88" height="2880.00" style="fill:#EAF2F3"/>
	<rect x="2.88" y="2.88" width="3954.12" height="2874.24" style="fill:none;stroke:#EAF2F3;stroke-width:5.76"/>
	<rect x="390.80" y="275.35" width="3468.22" height="2213.83" style="fill:#FFFFFF"/>
	<rect x="393.68" y="278.23" width="3462.46" height="2208.07" style="fill:none;stroke:#FFFFFF;stroke-width:5.76"/>
	<line x1="390.80" y1="2425.82" x2="3859.02" y2="2425.82" style="stroke:#EAF2F3;stroke-width:8.64"/>
	<line x1="390.80" y1="1730.08" x2="3859.02" y2="1730.08" style="stroke:#EAF2F3;stroke-width:8.64"/>
	<line x1="390.80" y1="1034.46" x2="3859.02" y2="1034.46" style="stroke:#EAF2F3;stroke-width:8.64"/>
	<line x1="390.80" y1="338.71" x2="3859.02" y2="338.71" style="stroke:#EAF2F3;stroke-width:8.64"/>
	<path d=" M454.04 2233.88 L460.72 2192.67 L467.40 2152.45 L474.09 2113.22 L480.77 2074.86 L487.45 2037.36 L494.13 2000.73 L500.82 1964.96 L507.50 1930.07 L514.18 1896.03 L520.86 1862.74 L527.55 1830.20 L534.23 1798.39 L540.91 1767.45 L547.59 1737.13 L554.28 1707.43 L560.96 1678.60 L567.64 1650.26 L574.32 1622.66 L581.01 1595.81 L587.69 1569.45 L594.37 1543.71 L601.05 1518.46 L607.74 1493.96 L614.42 1469.95 L621.10 1446.44 L627.78 1423.54 L634.47 1401.02 L641.15 1379.11 L647.83 1357.70 L654.51 1336.79 L661.20 1316.37 L667.88 1296.45 L674.56 1276.89 L681.24 1257.71 L687.93 1239.15 L694.73 1220.83 L701.42 1203.01 L708.10 1185.56 L714.78 1168.61 L721.46 1151.90 L728.15 1135.69 L734.83 1119.72 L741.51 1104.13 L748.19 1089.03 L754.88 1074.18 L761.56 1059.58 L768.24 1045.47 L774.92 1031.61 L781.61 1018.00 L788.29 1004.76 L794.97 991.89 L801.65 979.14 L808.34 966.77 L815.02 954.76 L821.70 943.00 L828.38 931.37 L835.07 920.11 L841.75 909.10 L848.43 898.33 L855.11 887.93 L861.80 877.66 L868.48 867.64 L875.16 857.86 L881.84 848.21 L888.53 838.93 L895.21 829.77 L901.89 820.86 L908.57 812.20 L915.26 803.66 L921.94 795.37 L928.62 787.32 L935.30 779.40 L941.99 771.61 L948.67 764.06 L955.35 756.75 L962.03 749.58 L968.72 742.52 L975.40 735.72 L982.08 729.03 L988.76 722.60 L995.45 716.16 L1002.13 709.98 L1008.81 703.91 L1015.49 698.10 L1022.18 692.28 L1028.86 686.71 L1035.54 681.14 L1042.22 675.82 L1048.91 670.62 L1055.59 665.55 L1062.27 660.60 L1068.95 655.77 L1075.64 651.07 L1082.32 646.49 L1089.00 642.04 L1095.68 637.58 L1102.37 633.37 L1109.05 629.16 L1115.73 625.20 L1122.41 621.24 L1129.10 617.41 L1135.78 613.57 L1142.46 609.98 L1149.14 606.39 L1155.83 602.93 L1162.51 599.59 L1169.19 596.25 L1175.87 593.03 L1182.56 589.93 L1189.24 586.84 L1195.92 583.87 L1202.60 581.02 L1209.29 578.18 L1215.97 575.46 L1222.65 572.73 L1229.33 570.13 L1236.02 567.54 L1242.70 565.06 L1249.38 562.71 L1256.06 560.36 L1262.74 558.01 L1269.43 555.78 L1276.11 553.55 L1282.79 551.45 L1289.47 549.34 L1296.16 547.36 L1302.84 545.38 L1309.52 543.40 L1316.21 541.55 L1322.89 539.69 L1329.57 537.96 L1336.25 536.23 L1342.94 534.49 L1349.62 532.88 L1356.30 531.15 L1362.98 529.67 L1369.67 528.06 L1376.35 526.57 L1383.03 525.09 L1389.71 523.60 L1396.40 522.24 L1403.08 520.88 L1409.76 519.52 L1416.44 518.16 L1423.13 516.92 L1429.81 515.68 L1436.49 514.44 L1443.17 513.21 L1449.86 511.97 L1456.54 510.86 L1463.22 509.74 L1469.90 508.63 L1476.59 507.51 L1483.27 506.40 L1489.95 505.41 L1496.63 504.30 L1503.32 503.31 L1510.00 502.32 L1516.68 501.33 L1523.36 500.46 L1530.05 499.47 L1536.73 498.48 L1543.41 497.61 L1550.09 496.75 L1556.78 495.88 L1563.46 495.02 L1570.14 494.15 L1576.82 493.28 L1583.51 492.42 L1590.19 491.67 L1596.87 490.81 L1603.55 490.07 L1610.24 489.20 L1616.92 488.46 L1623.60 487.71 L1630.28 486.97 L1636.97 486.11 L1643.65 485.36 L1650.33 484.62 L1657.01 484.00 L1663.70 483.26 L1670.38 482.52 L1677.06 481.77 L1683.74 481.03 L1690.43 480.41 L1697.11 479.67 L1703.79 479.05 L1710.47 478.31 L1717.16 477.69 L1723.84 476.95 L1730.52 476.33 L1737.20 475.59 L1743.89 474.97 L1750.57 474.35 L1757.25 473.73 L1763.93 472.99 L1770.62 472.37 L1777.30 471.75 L1783.98 471.13 L1790.66 470.51 L1797.35 469.77 L1804.03 469.15 L1810.71 468.53 L1817.39 467.91 L1824.08 467.29 L1830.76 466.68 L1837.44 466.06 L1844.12 465.44 L1850.81 464.82 L1857.49 464.20 L1864.17 463.58 L1870.85 462.96 L1877.54 462.34 L1884.22 461.85 L1890.90 461.23 L1897.58 460.61 L1904.27 459.99 L1910.95 459.37 L1917.63 458.76 L1924.31 458.26 L1931.00 457.64 L1937.80 457.02 L1944.48 456.40 L1951.17 455.91 L1957.85 455.29 L1964.53 454.67 L1971.21 454.18 L1977.90 453.56 L1984.58 453.06 L1991.26 452.44 L1997.94 451.83 L2004.63 451.33 L2011.31 450.71 L2017.99 450.22 L2024.67 449.60 L2031.36 449.10 L2038.04 448.61 L2044.72 447.99 L2051.40 447.49 L2058.09 446.88 L2064.77 446.38 L2071.45 445.89 L2078.13 445.27 L2084.82 444.77 L2091.50 444.28 L2098.18 443.78 L2104.86 443.29 L2111.55 442.67 L2118.23 442.17 L2124.91 441.68 L2131.59 441.18 L2138.28 440.69 L2144.96 440.19 L2151.64 439.70 L2158.32 439.20 L2165.01 438.71 L2171.69 438.21 L2178.37 437.72 L2185.05 437.22 L2191.74 436.85 L2198.42 436.36 L2205.10 435.86 L2211.78 435.37 L2218.47 434.99 L2225.15 434.50 L2231.83 434.00 L2238.51 433.63 L2245.20 433.14 L2251.88 432.64 L2258.56 432.27 L2265.24 431.78 L2271.93 431.41 L2278.61 430.91 L2285.29 430.54 L2291.97 430.04 L2298.66 429.67 L2305.34 429.30 L2312.02 428.81 L2318.70 428.44 L2325.39 428.06 L2332.07 427.57 L2338.75 427.20 L2345.43 426.83 L2352.12 426.46 L2358.80 426.08 L2365.48 425.71 L2372.16 425.22 L2378.85 424.85 L2385.53 424.48 L2392.21 424.10 L2398.89 423.73 L2405.58 423.36 L2412.26 422.99 L2418.94 422.62 L2425.62 422.25 L2432.31 422.00 L2438.99 421.63 L2445.67 421.26 L2452.35 420.89 L2459.04 420.52 L2465.72 420.14 L2472.40 419.90 L2479.08 419.53 L2485.77 419.15 L2492.45 418.91 L2499.13 418.54 L2505.81 418.16 L2512.50 417.92 L2519.18 417.55 L2525.86 417.17 L2532.54 416.93 L2539.23 416.56 L2545.91 416.31 L2552.59 415.94 L2559.27 415.69 L2565.96 415.32 L2572.64 415.07 L2579.32 414.82 L2586.00 414.45 L2592.69 414.20 L2599.37 413.83 L2606.05 413.59 L2612.73 413.34 L2619.42 412.97 L2626.10 412.72 L2632.78 412.47 L2639.46 412.22 L2646.15 411.85 L2652.83 411.61 L2659.51 411.36 L2666.19 411.11 L2672.88 410.86 L2679.56 410.49 L2686.24 410.24 L2692.92 410.00 L2699.61 409.75 L2706.29 409.50 L2712.97 409.25 L2719.65 409.01 L2726.34 408.76 L2733.02 408.51 L2739.70 408.26 L2746.38 408.02 L2753.07 407.77 L2759.75 407.52 L2766.43 407.27 L2773.11 407.03 L2779.80 406.78 L2786.48 406.66 L2793.16 406.41 L2799.84 406.16 L2806.53 405.91 L2813.21 405.67 L2819.89 405.42 L2826.57 405.29 L2833.26 405.05 L2839.94 404.80 L2846.62 404.55 L2853.30 404.43 L2859.99 404.18 L2866.67 403.93 L2873.35 403.81 L2880.03 403.56 L2886.72 403.31 L2893.40 403.19 L2900.08 402.94 L2906.76 402.70 L2913.45 402.57 L2920.13 402.32 L2926.81 402.20 L2933.49 401.95 L2940.18 401.83 L2946.86 401.58 L2953.54 401.46 L2960.22 401.21 L2966.91 401.09 L2973.59 400.84 L2980.27 400.72 L2986.95 400.47 L2993.64 400.34 L3000.32 400.10 L3007.00 399.97 L3013.68 399.85 L3020.37 399.60 L3027.05 399.48 L3033.73 399.35 L3040.41 399.11 L3047.10 398.98 L3053.78 398.86 L3060.46 398.61 L3067.14 398.49 L3073.83 398.36 L3080.51 398.12 L3087.19 397.99 L3093.87 397.87 L3100.56 397.74 L3107.24 397.50 L3113.92 397.37 L3120.60 397.25 L3127.29 397.13 L3133.97 397.00 L3140.65 396.75 L3147.33 396.63 L3154.02 396.51 L3160.70 396.38 L3167.38 396.26 L3174.06 396.14 L3180.87 396.01 L3187.55 395.76 L3194.24 395.64 L3200.92 395.52 L3207.60 395.39 L3214.28 395.27 L3220.97 395.15 L3227.65 395.02 L3234.33 394.90 L3241.01 394.77 L3247.70 394.65 L3254.38 394.53 L3261.06 394.40 L3267.74 394.28 L3274.43 394.16 L3281.11 394.03 L3287.79 393.91 L3294.47 393.78 L3301.16 393.66 L3307.84 393.54 L3314.52 393.41 L3321.20 393.29 L3327.89 393.17 L3334.57 393.04 L3341.25 393.04 L3347.93 392.92 L3354.62 392.79 L3361.30 392.67 L3367.98 392.55 L3374.66 392.42 L3381.35 392.30 L3388.03 392.30 L3394.71 392.18 L3401.39 392.05 L3408.08 391.93 L3414.76 391.80 L3421.44 391.68 L3428.12 391.68 L3434.81 391.56 L3441.49 391.43 L3448.17 391.31 L3454.85 391.31 L3461.54 391.19 L3468.22 391.06 L3474.90 390.94 L3481.58 390.94 L3488.27 390.81 L3494.95 390.69 L3501.63 390.57 L3508.31 390.57 L3515.00 390.44 L3521.68 390.32 L3528.36 390.32 L3535.04 390.20 L3541.73 390.07 L3548.41 390.07 L3555.09 389.95 L3561.77 389.82 L3568.46 389.82 L3575.14 389.70 L3581.82 389.58 L3588.50 389.58 L3595.19 389.45 L3601.87 389.45 L3608.55 389.33 L3615.23 389.21 L3621.92 389.21 L3628.60 389.08 L3635.28 389.08 L3641.96 388.96 L3648.65 388.83 L3655.33 388.83 L3662.01 388.71 L3668.69 388.71 L3675.38 388.59 L3682.06 388.59 L3688.74 388.46 L3695.42 388.46 L3702.11 388.34 L3708.79 388.34 L3715.47 388.22 L3722.15 388.22 L3728.84 388.09 L3735.52 388.09 L3742.20 387.97 L3748.88 387.97 L3755.57 387.84 L3762.25 387.84 L3768.93 387.72 L3775.61 387.72 L3782.30 387.60 L3788.98 387.60 L3795.66 387.47" stroke-linejoin="round" style="fill:none;stroke:#1A476F;stroke-width:8.64"/>
	<line x1="390.80" y1="2489.19" x2="390.80" y2="275.35" style="stroke:#000000;stroke-width:5.76"/>
	<line x1="390.80" y1="2425.82" x2="350.83" y2="2425.82" style="stroke:#000000;stroke-width:5.76"/>
	<text x="300.72" y="2425.82" style="font-family:'Helvetica';font-size:99.99px;fill:#000000" transform="rotate(-90 300.72,2425.82)" text-anchor="middle">.7</text>
	<line x1="390.80" y1="1730.08" x2="350.83" y2="1730.08" style="stroke:#000000;stroke-width:5.76"/>
	<text x="300.72" y="1730.08" style="font-family:'Helvetica';font-size:99.99px;fill:#000000" transform="rotate(-90 300.72,1730.08)" text-anchor="middle">.8</text>
	<line x1="390.80" y1="1034.46" x2="350.83" y2="1034.46" style="stroke:#000000;stroke-width:5.76"/>
	<text x="300.72" y="1034.46" style="font-family:'Helvetica';font-size:99.99px;fill:#000000" transform="rotate(-90 300.72,1034.46)" text-anchor="middle">.9</text>
	<line x1="390.80" y1="338.71" x2="350.83" y2="338.71" style="stroke:#000000;stroke-width:5.76"/>
	<text x="300.72" y="338.71" style="font-family:'Helvetica';font-size:99.99px;fill:#000000" transform="rotate(-90 300.72,338.71)" text-anchor="middle">1</text>
	<text x="190.71" y="1382.33" style="font-family:'Helvetica';font-style:italic;font-size:99.99px;fill:#000000" transform="rotate(-90 190.71,1382.33)" text-anchor="middle">ρ</text>
	<line x1="390.80" y1="2489.19" x2="3859.02" y2="2489.19" style="stroke:#000000;stroke-width:5.76"/>
	<line x1="454.16" y1="2489.19" x2="454.16" y2="2529.16" style="stroke:#000000;stroke-width:5.76"/>
	<text x="454.16" y="2619.14" style="font-family:'Helvetica';font-size:99.99px;fill:#000000" text-anchor="middle">0</text>
	<line x1="1122.41" y1="2489.19" x2="1122.41" y2="2529.16" style="stroke:#000000;stroke-width:5.76"/>
	<text x="1122.41" y="2619.14" style="font-family:'Helvetica';font-size:99.99px;fill:#000000" text-anchor="middle">1</text>
	<line x1="1790.79" y1="2489.19" x2="1790.79" y2="2529.16" style="stroke:#000000;stroke-width:5.76"/>
	<text x="1790.79" y="2619.14" style="font-family:'Helvetica';font-size:99.99px;fill:#000000" text-anchor="middle">2</text>
	<line x1="2459.04" y1="2489.19" x2="2459.04" y2="2529.16" style="stroke:#000000;stroke-width:5.76"/>
	<text x="2459.04" y="2619.14" style="font-family:'Helvetica';font-size:99.99px;fill:#000000" text-anchor="middle">3</text>
	<line x1="3127.41" y1="2489.19" x2="3127.41" y2="2529.16" style="stroke:#000000;stroke-width:5.76"/>
	<text x="3127.41" y="2619.14" style="font-family:'Helvetica';font-size:99.99px;fill:#000000" text-anchor="middle">4</text>
	<line x1="3795.66" y1="2489.19" x2="3795.66" y2="2529.16" style="stroke:#000000;stroke-width:5.76"/>
	<text x="3795.66" y="2619.14" style="font-family:'Helvetica';font-size:99.99px;fill:#000000" text-anchor="middle">5</text>
	<text x="2124.91" y="2729.16" style="font-family:'Helvetica';font-style:italic;font-size:99.99px;fill:#000000" text-anchor="middle">θ</text>
	<text x="2124.91" y="215.98" style="fill:#1E2D53" text-anchor="middle">
		<tspan style="font-family:'Helvetica';font-style:italic;font-size:139.96px">ρ</tspan>
		<tspan style="font-family:'Helvetica';font-size:139.96px">-</tspan>
		<tspan style="font-family:'Helvetica';font-style:italic;font-size:139.96px">θ</tspan>
		<tspan style="font-family:'Helvetica';font-size:139.96px"> of variable y</tspan>
	</text>
</svg>
