<?xml version="1.0" encoding="UTF-8" standalone="no"?>
<!-- This is a Stata 17.0 generated SVG file (http://www.stata.com) -->

<svg version="1.1" width="5.500in" height="4.000in" viewBox="0 0 3960 2880" xmlns="http://www.w3.org/2000/svg" xmlns:xlink="http://www.w3.org/1999/xlink">
	<desc>Stata Graph - Graph</desc>
	<rect x="0" y="0" width="3960" height="2880" style="fill:#EAF2F3;stroke:none"/>
	<rect x="0.00" y="0.00" width="3959.88" height="2880.00" style="fill:#EAF2F3"/>
	<rect x="2.88" y="2.88" width="3954.12" height="2874.24" style="fill:none;stroke:#EAF2F3;stroke-width:5.76"/>
	<rect x="390.80" y="100.86" width="3468.22" height="2388.33" style="fill:#FFFFFF"/>
	<rect x="393.68" y="103.74" width="3462.46" height="2382.57" style="fill:none;stroke:#FFFFFF;stroke-width:5.76"/>
	<line x1="390.80" y1="2276.82" x2="3859.02" y2="2276.82" style="stroke:#EAF2F3;stroke-width:8.64"/>
	<line x1="390.80" y1="1748.64" x2="3859.02" y2="1748.64" style="stroke:#EAF2F3;stroke-width:8.64"/>
	<line x1="390.80" y1="1220.46" x2="3859.02" y2="1220.46" style="stroke:#EAF2F3;stroke-width:8.64"/>
	<line x1="390.80" y1="692.28" x2="3859.02" y2="692.28" style="stroke:#EAF2F3;stroke-width:8.64"/>
	<line x1="390.80" y1="164.22" x2="3859.02" y2="164.22" style="stroke:#EAF2F3;stroke-width:8.64"/>
	<path d=" M454.04 1391.24 L537.57 315.32 L621.10 2265.07 L704.76 1176.78 L788.29 438.95 L871.82 1872.27 L955.35 518.53 L1038.88 1642.46 L1122.41 338.59 L1205.94 2187.84 L1289.47 1012.43 L1373.01 622.98 L1456.54 1368.47 L1540.07 322.26 L1623.60 2242.05 L1707.13 1126.16 L1790.66 487.34 L1874.19 1730.20 L1957.85 389.33 L2041.38 2024.49 L2124.91 721.11 L2208.44 1139.65 L2291.97 473.73 L2375.51 1769.43 L2459.04 419.28 L2542.57 1931.80 L2626.10 589.81 L2709.63 1452.13 L2793.16 304.43 L2876.69 2302.07 L2960.22 1261.79 L3043.76 374.23 L3127.29 2072.63 L3210.94 799.08 L3294.47 977.53 L3378.00 671.98 L3461.54 1250.53 L3545.07 381.53 L3628.60 2049.36 L3712.13 760.47" stroke-linejoin="round" style="fill:none;stroke:#1A476F;stroke-width:8.64"/>
	<circle cx="454.04" cy="1391.24" r="26.35" style="fill:#1A476F"/>
	<circle cx="454.04" cy="1391.24" r="22.03" style="fill:none;stroke:#1A476F;stroke-width:8.64"/>
	<circle cx="537.57" cy="315.32" r="26.35" style="fill:#1A476F"/>
	<circle cx="537.57" cy="315.32" r="22.03" style="fill:none;stroke:#1A476F;stroke-width:8.64"/>
	<circle cx="621.10" cy="2265.07" r="26.35" style="fill:#1A476F"/>
	<circle cx="621.10" cy="2265.07" r="22.03" style="fill:none;stroke:#1A476F;stroke-width:8.64"/>
	<circle cx="704.76" cy="1176.78" r="26.35" style="fill:#1A476F"/>
	<circle cx="704.76" cy="1176.78" r="22.03" style="fill:none;stroke:#1A476F;stroke-width:8.64"/>
	<circle cx="788.29" cy="438.95" r="26.35" style="fill:#1A476F"/>
	<circle cx="788.29" cy="438.95" r="22.03" style="fill:none;stroke:#1A476F;stroke-width:8.64"/>
	<circle cx="871.82" cy="1872.27" r="26.35" style="fill:#1A476F"/>
	<circle cx="871.82" cy="1872.27" r="22.03" style="fill:none;stroke:#1A476F;stroke-width:8.64"/>
	<circle cx="955.35" cy="518.53" r="26.35" style="fill:#1A476F"/>
	<circle cx="955.35" cy="518.53" r="22.03" style="fill:none;stroke:#1A476F;stroke-width:8.64"/>
	<circle cx="1038.88" cy="1642.46" r="26.35" style="fill:#1A476F"/>
	<circle cx="1038.88" cy="1642.46" r="22.03" style="fill:none;stroke:#1A476F;stroke-width:8.64"/>
	<circle cx="1122.41" cy="338.59" r="26.35" style="fill:#1A476F"/>
	<circle cx="1122.41" cy="338.59" r="22.03" style="fill:none;stroke:#1A476F;stroke-width:8.64"/>
	<circle cx="1205.94" cy="2187.84" r="26.35" style="fill:#1A476F"/>
	<circle cx="1205.94" cy="2187.84" r="22.03" style="fill:none;stroke:#1A476F;stroke-width:8.64"/>
	<circle cx="1289.47" cy="1012.43" r="26.35" style="fill:#1A476F"/>
	<circle cx="1289.47" cy="1012.43" r="22.03" style="fill:none;stroke:#1A476F;stroke-width:8.64"/>
	<circle cx="1373.01" cy="622.98" r="26.35" style="fill:#1A476F"/>
	<circle cx="1373.01" cy="622.98" r="22.03" style="fill:none;stroke:#1A476F;stroke-width:8.64"/>
	<circle cx="1456.54" cy="1368.47" r="26.35" style="fill:#1A476F"/>
	<circle cx="1456.54" cy="1368.47" r="22.03" style="fill:none;stroke:#1A476F;stroke-width:8.64"/>
	<circle cx="1540.07" cy="322.26" r="26.35" style="fill:#1A476F"/>
	<circle cx="1540.07" cy="322.26" r="22.03" style="fill:none;stroke:#1A476F;stroke-width:8.64"/>
	<circle cx="1623.60" cy="2242.05" r="26.35" style="fill:#1A476F"/>
	<circle cx="1623.60" cy="2242.05" r="22.03" style="fill:none;stroke:#1A476F;stroke-width:8.64"/>
	<circle cx="1707.13" cy="1126.16" r="26.35" style="fill:#1A476F"/>
	<circle cx="1707.13" cy="1126.16" r="22.03" style="fill:none;stroke:#1A476F;stroke-width:8.64"/>
	<circle cx="1790.66" cy="487.34" r="26.35" style="fill:#1A476F"/>
	<circle cx="1790.66" cy="487.34" r="22.03" style="fill:none;stroke:#1A476F;stroke-width:8.64"/>
	<circle cx="1874.19" cy="1730.20" r="26.35" style="fill:#1A476F"/>
	<circle cx="1874.19" cy="1730.20" r="22.03" style="fill:none;stroke:#1A476F;stroke-width:8.64"/>
	<circle cx="1957.85" cy="389.33" r="26.35" style="fill:#1A476F"/>
	<circle cx="1957.85" cy="389.33" r="22.03" style="fill:none;stroke:#1A476F;stroke-width:8.64"/>
	<circle cx="2041.38" cy="2024.49" r="26.35" style="fill:#1A476F"/>
	<circle cx="2041.38" cy="2024.49" r="22.03" style="fill:none;stroke:#1A476F;stroke-width:8.64"/>
	<circle cx="2124.91" cy="721.11" r="26.35" style="fill:#1A476F"/>
	<circle cx="2124.91" cy="721.11" r="22.03" style="fill:none;stroke:#1A476F;stroke-width:8.64"/>
	<circle cx="2208.44" cy="1139.65" r="26.35" style="fill:#1A476F"/>
	<circle cx="2208.44" cy="1139.65" r="22.03" style="fill:none;stroke:#1A476F;stroke-width:8.64"/>
	<circle cx="2291.97" cy="473.73" r="26.35" style="fill:#1A476F"/>
	<circle cx="2291.97" cy="473.73" r="22.03" style="fill:none;stroke:#1A476F;stroke-width:8.64"/>
	<circle cx="2375.51" cy="1769.43" r="26.35" style="fill:#1A476F"/>
	<circle cx="2375.51" cy="1769.43" r="22.03" style="fill:none;stroke:#1A476F;stroke-width:8.64"/>
	<circle cx="2459.04" cy="419.28" r="26.35" style="fill:#1A476F"/>
	<circle cx="2459.04" cy="419.28" r="22.03" style="fill:none;stroke:#1A476F;stroke-width:8.64"/>
	<circle cx="2542.57" cy="1931.80" r="26.35" style="fill:#1A476F"/>
	<circle cx="2542.57" cy="1931.80" r="22.03" style="fill:none;stroke:#1A476F;stroke-width:8.64"/>
	<circle cx="2626.10" cy="589.81" r="26.35" style="fill:#1A476F"/>
	<circle cx="2626.10" cy="589.81" r="22.03" style="fill:none;stroke:#1A476F;stroke-width:8.64"/>
	<circle cx="2709.63" cy="1452.13" r="26.35" style="fill:#1A476F"/>
	<circle cx="2709.63" cy="1452.13" r="22.03" style="fill:none;stroke:#1A476F;stroke-width:8.64"/>
	<circle cx="2793.16" cy="304.43" r="26.35" style="fill:#1A476F"/>
	<circle cx="2793.16" cy="304.43" r="22.03" style="fill:none;stroke:#1A476F;stroke-width:8.64"/>
	<circle cx="2876.69" cy="2302.07" r="26.35" style="fill:#1A476F"/>
	<circle cx="2876.69" cy="2302.07" r="22.03" style="fill:none;stroke:#1A476F;stroke-width:8.64"/>
	<circle cx="2960.22" cy="1261.79" r="26.35" style="fill:#1A476F"/>
	<circle cx="2960.22" cy="1261.79" r="22.03" style="fill:none;stroke:#1A476F;stroke-width:8.64"/>
	<circle cx="3043.76" cy="374.23" r="26.35" style="fill:#1A476F"/>
	<circle cx="3043.76" cy="374.23" r="22.03" style="fill:none;stroke:#1A476F;stroke-width:8.64"/>
	<circle cx="3127.29" cy="2072.63" r="26.35" style="fill:#1A476F"/>
	<circle cx="3127.29" cy="2072.63" r="22.03" style="fill:none;stroke:#1A476F;stroke-width:8.64"/>
	<circle cx="3210.94" cy="799.08" r="26.35" style="fill:#1A476F"/>
	<circle cx="3210.94" cy="799.08" r="22.03" style="fill:none;stroke:#1A476F;stroke-width:8.64"/>
	<circle cx="3294.47" cy="977.53" r="26.35" style="fill:#1A476F"/>
	<circle cx="3294.47" cy="977.53" r="22.03" style="fill:none;stroke:#1A476F;stroke-width:8.64"/>
	<circle cx="3378.00" cy="671.98" r="26.35" style="fill:#1A476F"/>
	<circle cx="3378.00" cy="671.98" r="22.03" style="fill:none;stroke:#1A476F;stroke-width:8.64"/>
	<circle cx="3461.54" cy="1250.53" r="26.35" style="fill:#1A476F"/>
	<circle cx="3461.54" cy="1250.53" r="22.03" style="fill:none;stroke:#1A476F;stroke-width:8.64"/>
	<circle cx="3545.07" cy="381.53" r="26.35" style="fill:#1A476F"/>
	<circle cx="3545.07" cy="381.53" r="22.03" style="fill:none;stroke:#1A476F;stroke-width:8.64"/>
	<circle cx="3628.60" cy="2049.36" r="26.35" style="fill:#1A476F"/>
	<circle cx="3628.60" cy="2049.36" r="22.03" style="fill:none;stroke:#1A476F;stroke-width:8.64"/>
	<circle cx="3712.13" cy="760.47" r="26.35" style="fill:#1A476F"/>
	<circle cx="3712.13" cy="760.47" r="22.03" style="fill:none;stroke:#1A476F;stroke-width:8.64"/>
	<path d=" M454.04 1884.65 L537.57 631.02 L621.10 1758.67 L704.76 453.43 L788.29 2119.16 L871.82 1003.52 L955.35 762.32 L1038.88 1405.35 L1122.41 435.12 L1205.94 2326.45 L1289.47 1341.99 L1373.01 530.66 L1456.54 1984.76 L1540.07 751.06 L1623.60 1461.53 L1707.13 360.99 L1790.66 2425.95 L1874.19 1640.85 L1957.85 432.64 L2041.38 2325.21 L2124.91 1345.20 L2208.44 561.22 L2291.97 1809.78 L2375.51 630.28 L2459.04 1521.06 L2542.57 536.72 L2626.10 1742.33 L2709.63 576.45 L2793.16 1714.98 L2876.69 585.48 L2960.22 1547.91 L3043.76 455.54 L3127.29 2255.29 L3210.94 1185.69 L3294.47 677.18 L3378.00 1533.19 L3461.54 511.72 L3545.07 1931.43 L3628.60 749.70 L3712.13 1195.83" stroke-linejoin="round" style="fill:none;stroke:#90353B;stroke-width:8.64"/>
	<circle cx="454.04" cy="1884.65" r="26.35" style="fill:#90353B"/>
	<circle cx="454.04" cy="1884.65" r="22.03" style="fill:none;stroke:#90353B;stroke-width:8.64"/>
	<circle cx="537.57" cy="631.02" r="26.35" style="fill:#90353B"/>
	<circle cx="537.57" cy="631.02" r="22.03" style="fill:none;stroke:#90353B;stroke-width:8.64"/>
	<circle cx="621.10" cy="1758.67" r="26.35" style="fill:#90353B"/>
	<circle cx="621.10" cy="1758.67" r="22.03" style="fill:none;stroke:#90353B;stroke-width:8.64"/>
	<circle cx="704.76" cy="453.43" r="26.35" style="fill:#90353B"/>
	<circle cx="704.76" cy="453.43" r="22.03" style="fill:none;stroke:#90353B;stroke-width:8.64"/>
	<circle cx="788.29" cy="2119.16" r="26.35" style="fill:#90353B"/>
	<circle cx="788.29" cy="2119.16" r="22.03" style="fill:none;stroke:#90353B;stroke-width:8.64"/>
	<circle cx="871.82" cy="1003.52" r="26.35" style="fill:#90353B"/>
	<circle cx="871.82" cy="1003.52" r="22.03" style="fill:none;stroke:#90353B;stroke-width:8.64"/>
	<circle cx="955.35" cy="762.32" r="26.35" style="fill:#90353B"/>
	<circle cx="955.35" cy="762.32" r="22.03" style="fill:none;stroke:#90353B;stroke-width:8.64"/>
	<circle cx="1038.88" cy="1405.35" r="26.35" style="fill:#90353B"/>
	<circle cx="1038.88" cy="1405.35" r="22.03" style="fill:none;stroke:#90353B;stroke-width:8.64"/>
	<circle cx="1122.41" cy="435.12" r="26.35" style="fill:#90353B"/>
	<circle cx="1122.41" cy="435.12" r="22.03" style="fill:none;stroke:#90353B;stroke-width:8.64"/>
	<circle cx="1205.94" cy="2326.45" r="26.35" style="fill:#90353B"/>
	<circle cx="1205.94" cy="2326.45" r="22.03" style="fill:none;stroke:#90353B;stroke-width:8.64"/>
	<circle cx="1289.47" cy="1341.99" r="26.35" style="fill:#90353B"/>
	<circle cx="1289.47" cy="1341.99" r="22.03" style="fill:none;stroke:#90353B;stroke-width:8.64"/>
	<circle cx="1373.01" cy="530.66" r="26.35" style="fill:#90353B"/>
	<circle cx="1373.01" cy="530.66" r="22.03" style="fill:none;stroke:#90353B;stroke-width:8.64"/>
	<circle cx="1456.54" cy="1984.76" r="26.35" style="fill:#90353B"/>
	<circle cx="1456.54" cy="1984.76" r="22.03" style="fill:none;stroke:#90353B;stroke-width:8.64"/>
	<circle cx="1540.07" cy="751.06" r="26.35" style="fill:#90353B"/>
	<circle cx="1540.07" cy="751.06" r="22.03" style="fill:none;stroke:#90353B;stroke-width:8.64"/>
	<circle cx="1623.60" cy="1461.53" r="26.35" style="fill:#90353B"/>
	<circle cx="1623.60" cy="1461.53" r="22.03" style="fill:none;stroke:#90353B;stroke-width:8.64"/>
	<circle cx="1707.13" cy="360.99" r="26.35" style="fill:#90353B"/>
	<circle cx="1707.13" cy="360.99" r="22.03" style="fill:none;stroke:#90353B;stroke-width:8.64"/>
	<circle cx="1790.66" cy="2425.95" r="26.35" style="fill:#90353B"/>
	<circle cx="1790.66" cy="2425.95" r="22.03" style="fill:none;stroke:#90353B;stroke-width:8.64"/>
	<circle cx="1874.19" cy="1640.85" r="26.35" style="fill:#90353B"/>
	<circle cx="1874.19" cy="1640.85" r="22.03" style="fill:none;stroke:#90353B;stroke-width:8.64"/>
	<circle cx="1957.85" cy="432.64" r="26.35" style="fill:#90353B"/>
	<circle cx="1957.85" cy="432.64" r="22.03" style="fill:none;stroke:#90353B;stroke-width:8.64"/>
	<circle cx="2041.38" cy="2325.21" r="26.35" style="fill:#90353B"/>
	<circle cx="2041.38" cy="2325.21" r="22.03" style="fill:none;stroke:#90353B;stroke-width:8.64"/>
	<circle cx="2124.91" cy="1345.20" r="26.35" style="fill:#90353B"/>
	<circle cx="2124.91" cy="1345.20" r="22.03" style="fill:none;stroke:#90353B;stroke-width:8.64"/>
	<circle cx="2208.44" cy="561.22" r="26.35" style="fill:#90353B"/>
	<circle cx="2208.44" cy="561.22" r="22.03" style="fill:none;stroke:#90353B;stroke-width:8.64"/>
	<circle cx="2291.97" cy="1809.78" r="26.35" style="fill:#90353B"/>
	<circle cx="2291.97" cy="1809.78" r="22.03" style="fill:none;stroke:#90353B;stroke-width:8.64"/>
	<circle cx="2375.51" cy="630.28" r="26.35" style="fill:#90353B"/>
	<circle cx="2375.51" cy="630.28" r="22.03" style="fill:none;stroke:#90353B;stroke-width:8.64"/>
	<circle cx="2459.04" cy="1521.06" r="26.35" style="fill:#90353B"/>
	<circle cx="2459.04" cy="1521.06" r="22.03" style="fill:none;stroke:#90353B;stroke-width:8.64"/>
	<circle cx="2542.57" cy="536.72" r="26.35" style="fill:#90353B"/>
	<circle cx="2542.57" cy="536.72" r="22.03" style="fill:none;stroke:#90353B;stroke-width:8.64"/>
	<circle cx="2626.10" cy="1742.33" r="26.35" style="fill:#90353B"/>
	<circle cx="2626.10" cy="1742.33" r="22.03" style="fill:none;stroke:#90353B;stroke-width:8.64"/>
	<circle cx="2709.63" cy="576.45" r="26.35" style="fill:#90353B"/>
	<circle cx="2709.63" cy="576.45" r="22.03" style="fill:none;stroke:#90353B;stroke-width:8.64"/>
	<circle cx="2793.16" cy="1714.98" r="26.35" style="fill:#90353B"/>
	<circle cx="2793.16" cy="1714.98" r="22.03" style="fill:none;stroke:#90353B;stroke-width:8.64"/>
	<circle cx="2876.69" cy="585.48" r="26.35" style="fill:#90353B"/>
	<circle cx="2876.69" cy="585.48" r="22.03" style="fill:none;stroke:#90353B;stroke-width:8.64"/>
	<circle cx="2960.22" cy="1547.91" r="26.35" style="fill:#90353B"/>
	<circle cx="2960.22" cy="1547.91" r="22.03" style="fill:none;stroke:#90353B;stroke-width:8.64"/>
	<circle cx="3043.76" cy="455.54" r="26.35" style="fill:#90353B"/>
	<circle cx="3043.76" cy="455.54" r="22.03" style="fill:none;stroke:#90353B;stroke-width:8.64"/>
	<circle cx="3127.29" cy="2255.29" r="26.35" style="fill:#90353B"/>
	<circle cx="3127.29" cy="2255.29" r="22.03" style="fill:none;stroke:#90353B;stroke-width:8.64"/>
	<circle cx="3210.94" cy="1185.69" r="26.35" style="fill:#90353B"/>
	<circle cx="3210.94" cy="1185.69" r="22.03" style="fill:none;stroke:#90353B;stroke-width:8.64"/>
	<circle cx="3294.47" cy="677.18" r="26.35" style="fill:#90353B"/>
	<circle cx="3294.47" cy="677.18" r="22.03" style="fill:none;stroke:#90353B;stroke-width:8.64"/>
	<circle cx="3378.00" cy="1533.19" r="26.35" style="fill:#90353B"/>
	<circle cx="3378.00" cy="1533.19" r="22.03" style="fill:none;stroke:#90353B;stroke-width:8.64"/>
	<circle cx="3461.54" cy="511.72" r="26.35" style="fill:#90353B"/>
	<circle cx="3461.54" cy="511.72" r="22.03" style="fill:none;stroke:#90353B;stroke-width:8.64"/>
	<circle cx="3545.07" cy="1931.43" r="26.35" style="fill:#90353B"/>
	<circle cx="3545.07" cy="1931.43" r="22.03" style="fill:none;stroke:#90353B;stroke-width:8.64"/>
	<circle cx="3628.60" cy="749.70" r="26.35" style="fill:#90353B"/>
	<circle cx="3628.60" cy="749.70" r="22.03" style="fill:none;stroke:#90353B;stroke-width:8.64"/>
	<circle cx="3712.13" cy="1195.83" r="26.35" style="fill:#90353B"/>
	<circle cx="3712.13" cy="1195.83" r="22.03" style="fill:none;stroke:#90353B;stroke-width:8.64"/>
	<line x1="390.80" y1="2489.19" x2="390.80" y2="100.86" style="stroke:#000000;stroke-width:5.76"/>
	<line x1="390.80" y1="2276.82" x2="350.83" y2="2276.82" style="stroke:#000000;stroke-width:5.76"/>
	<text x="300.72" y="2276.82" style="font-family:'Helvetica';font-size:99.99px;fill:#000000" transform="rotate(-90 300.72,2276.82)" text-anchor="middle">.2</text>
	<line x1="390.80" y1="1748.64" x2="350.83" y2="1748.64" style="stroke:#000000;stroke-width:5.76"/>
	<text x="300.72" y="1748.64" style="font-family:'Helvetica';font-size:99.99px;fill:#000000" transform="rotate(-90 300.72,1748.64)" text-anchor="middle">.4</text>
	<line x1="390.80" y1="1220.46" x2="350.83" y2="1220.46" style="stroke:#000000;stroke-width:5.76"/>
	<text x="300.72" y="1220.46" style="font-family:'Helvetica';font-size:99.99px;fill:#000000" transform="rotate(-90 300.72,1220.46)" text-anchor="middle">.6</text>
	<line x1="390.80" y1="692.28" x2="350.83" y2="692.28" style="stroke:#000000;stroke-width:5.76"/>
	<text x="300.72" y="692.28" style="font-family:'Helvetica';font-size:99.99px;fill:#000000" transform="rotate(-90 300.72,692.28)" text-anchor="middle">.8</text>
	<line x1="390.80" y1="164.22" x2="350.83" y2="164.22" style="stroke:#000000;stroke-width:5.76"/>
	<text x="300.72" y="164.22" style="font-family:'Helvetica';font-size:99.99px;fill:#000000" transform="rotate(-90 300.72,164.22)" text-anchor="middle">1</text>
	<text x="190.71" y="1294.96" style="font-family:'Helvetica';font-size:99.99px;fill:#000000" transform="rotate(-90 190.71,1294.96)" text-anchor="middle">value</text>
	<line x1="390.80" y1="2489.19" x2="3859.02" y2="2489.19" style="stroke:#000000;stroke-width:5.76"/>
	<line x1="454.16" y1="2489.19" x2="454.16" y2="2529.16" style="stroke:#000000;stroke-width:5.76"/>
	<text x="454.16" y="2619.14" style="font-family:'Helvetica';font-size:99.99px;fill:#000000" text-anchor="middle">300</text>
	<line x1="1289.47" y1="2489.19" x2="1289.47" y2="2529.16" style="stroke:#000000;stroke-width:5.76"/>
	<text x="1289.47" y="2619.14" style="font-family:'Helvetica';font-size:99.99px;fill:#000000" text-anchor="middle">310</text>
	<line x1="2124.91" y1="2489.19" x2="2124.91" y2="2529.16" style="stroke:#000000;stroke-width:5.76"/>
	<text x="2124.91" y="2619.14" style="font-family:'Helvetica';font-size:99.99px;fill:#000000" text-anchor="middle">320</text>
	<line x1="2960.35" y1="2489.19" x2="2960.35" y2="2529.16" style="stroke:#000000;stroke-width:5.76"/>
	<text x="2960.35" y="2619.14" style="font-family:'Helvetica';font-size:99.99px;fill:#000000" text-anchor="middle">330</text>
	<line x1="3795.66" y1="2489.19" x2="3795.66" y2="2529.16" style="stroke:#000000;stroke-width:5.76"/>
	<text x="3795.66" y="2619.14" style="font-family:'Helvetica';font-size:99.99px;fill:#000000" text-anchor="middle">340</text>
	<text x="2124.91" y="2729.16" style="font-family:'Helvetica';font-size:99.99px;fill:#000000" text-anchor="middle">t</text>
	<rect x="425.33" y="2268.28" width="1197.03" height="186.37" style="fill:#FFFFFF"/>
	<rect x="428.21" y="2271.16" width="1191.27" height="180.61" style="fill:none;stroke:#000000;stroke-width:5.76"/>
	<line x1="468.52" y1="2361.47" x2="842.99" y2="2361.47" style="stroke:#1A476F;stroke-width:8.64"/>
	<circle cx="655.75" cy="2361.47" r="26.35" style="fill:#1A476F"/>
	<circle cx="655.75" cy="2361.47" r="22.03" style="fill:none;stroke:#1A476F;stroke-width:8.64"/>
	<line x1="1092.22" y1="2361.47" x2="1466.69" y2="2361.47" style="stroke:#90353B;stroke-width:8.64"/>
	<circle cx="1279.45" cy="2361.47" r="26.35" style="fill:#90353B"/>
	<circle cx="1279.45" cy="2361.47" r="22.03" style="fill:none;stroke:#90353B;stroke-width:8.64"/>
	<text x="902.88" y="2396.50" style="font-family:'Helvetica';font-size:99.99px;fill:#000000">x</text>
	<text x="1526.70" y="2396.50" style="font-family:'Helvetica';font-size:99.99px;fill:#000000">y</text>
</svg>
